<svg width="27" height="26" viewBox="0 0 27 26" fill="none" xmlns="http://www.w3.org/2000/svg">
<g clip-path="url(#clip0)">
<path d="M26.75 0H0.75V26H26.75V0Z" fill="#C7C7C7"/>
<path d="M15.7692 16.6437C15.7687 16.5467 15.7401 16.4457 15.7042 16.355C15.6563 16.2358 15.5536 16.1764 15.4247 16.1639C15.2735 16.149 15.1525 16.2101 15.043 16.3071C14.9991 16.3453 14.9791 16.4023 14.9791 16.4023L14.9814 19.4814V19.5573C14.9814 19.5573 15.0076 19.5926 15.0116 19.5972C15.1006 19.6936 15.2044 19.7701 15.3374 19.7975C15.5564 19.8425 15.7111 19.7512 15.7538 19.5481C15.7647 19.4974 15.771 19.4449 15.771 19.393C15.7721 18.4762 15.7738 17.5599 15.7692 16.6437ZM15.7692 16.6437C15.7687 16.5467 15.7401 16.4457 15.7042 16.355C15.6563 16.2358 15.5536 16.1764 15.4247 16.1639C15.2735 16.149 15.1525 16.2101 15.043 16.3071C14.9991 16.3453 14.9791 16.4023 14.9791 16.4023L14.9814 19.4814V19.5573C14.9814 19.5573 15.0076 19.5926 15.0116 19.5972C15.1006 19.6936 15.2044 19.7701 15.3374 19.7975C15.5564 19.8425 15.7111 19.7512 15.7538 19.5481C15.7647 19.4974 15.771 19.4449 15.771 19.393C15.7721 18.4762 15.7738 17.5599 15.7692 16.6437ZM19.2168 12.0003C15.573 11.9221 11.9274 11.9221 8.28298 12.0003C7.01873 12.0271 6.00778 13.0609 6.00778 14.3257V20.0171C6.00778 21.2825 7.01873 22.3163 8.28298 22.3431C11.9274 22.4212 15.573 22.4212 19.2168 22.3431C20.4817 22.3163 21.4926 21.2825 21.4926 20.0171V14.3257C21.4926 13.0609 20.4817 12.0271 19.2168 12.0003ZM9.35326 20.5358H8.30238V14.595H7.21441V13.6012H10.4435V14.5927H9.35326V20.5358ZM13.1141 18.0699V20.5363H12.1836V19.9726C12.1499 20.0085 12.1311 20.0279 12.1134 20.0479C11.9132 20.2738 11.6861 20.4621 11.3963 20.5619C11.2548 20.6104 11.1093 20.627 10.9604 20.6013C10.7573 20.5676 10.6209 20.4507 10.5388 20.2658C10.4623 20.0953 10.4429 19.9127 10.4424 19.729C10.4401 19.0501 10.4412 15.457 10.4412 15.4222H11.3695C11.3712 15.4536 11.3746 18.0329 11.3752 19.2908C11.3752 19.3593 11.3757 19.4295 11.3894 19.4962C11.4237 19.6651 11.5532 19.7376 11.7158 19.6782C11.9029 19.6098 12.0455 19.4808 12.1653 19.3262C12.183 19.304 12.183 19.264 12.183 19.2321V15.4165L13.1141 15.4142C13.1141 15.4143 13.1141 17.2153 13.1141 18.0699ZM16.6541 20.0433C16.5297 20.4176 16.2559 20.6082 15.8622 20.6042C15.5422 20.6013 15.2826 20.4741 15.0687 20.2419C15.0447 20.2162 14.9785 20.146 14.9785 20.146V20.5351H14.0463V13.6006H14.9785C14.9785 14.3388 14.9785 15.8832 14.9785 15.8832C14.9785 15.8832 15.031 15.7782 15.0789 15.724C15.2233 15.5625 15.399 15.4376 15.6158 15.3828C15.9735 15.2933 16.386 15.4039 16.5822 15.8221C16.698 16.0692 16.7306 16.3327 16.7306 16.6009C16.7323 17.5702 16.7323 18.5395 16.7311 19.5088C16.7306 19.6902 16.7117 19.8694 16.6541 20.0433ZM20.0971 19.8483C19.9357 20.3212 19.6019 20.5837 19.1124 20.6556C18.8089 20.7001 18.5083 20.6938 18.2236 20.5649C17.8339 20.3891 17.6131 20.0714 17.5184 19.6669C17.4745 19.4786 17.4528 19.2812 17.4505 19.0878C17.4431 18.3284 17.4465 17.5685 17.4483 16.8092C17.4488 16.4121 17.5435 16.0458 17.8157 15.7417C18.126 15.3943 18.5231 15.2648 18.9767 15.2939C19.113 15.3025 19.2522 15.3247 19.3817 15.3675C19.8227 15.5124 20.0584 15.8427 20.1508 16.2809C20.1861 16.4498 20.1993 16.6249 20.2021 16.7978C20.2095 17.2028 20.1993 18.0957 20.1993 18.0957H18.4141V19.3753C18.4141 19.6053 18.6001 19.7912 18.83 19.7912C19.0594 19.7912 19.2454 19.6053 19.2454 19.3753V18.7175H20.2044C20.2044 18.7175 20.2187 19.494 20.0971 19.8483ZM19.2454 16.5838C19.2454 16.3545 19.0594 16.1679 18.83 16.1679C18.6001 16.1679 18.4141 16.3545 18.4141 16.5838V17.3021H19.2454V16.5838ZM15.7042 16.355C15.6563 16.2358 15.5536 16.1765 15.4247 16.1639C15.2735 16.1491 15.1525 16.2101 15.043 16.3071C14.9991 16.3453 14.9791 16.4024 14.9791 16.4024L14.9814 19.4815V19.5573C14.9814 19.5573 15.0076 19.5927 15.0116 19.5973C15.1006 19.6937 15.2044 19.7701 15.3374 19.7975C15.5564 19.8426 15.7111 19.7513 15.7538 19.5482C15.7647 19.4974 15.771 19.4449 15.771 19.393C15.7721 18.4762 15.7738 17.56 15.7692 16.6437C15.7687 16.5467 15.7401 16.4457 15.7042 16.355Z" fill="white"/>
<path d="M18.0871 5.41919L18.0868 10.5677H17.1328L17.134 10.0146C17.0285 10.1185 16.9384 10.2155 16.8395 10.3027C16.6641 10.4572 16.4655 10.5724 16.2331 10.6179C15.8764 10.6876 15.5725 10.5749 15.4588 10.2054C15.4209 10.0823 15.398 9.94968 15.397 9.8212V5.41919H16.3439V9.34551C16.3439 9.39754 16.348 9.45014 16.3571 9.50115C16.3859 9.66294 16.5055 9.73911 16.6613 9.68508C16.8512 9.61936 16.9961 9.48785 17.1191 9.3329C17.1365 9.31077 17.1334 9.26946 17.1334 9.237V5.41919H18.0871Z" fill="white"/>
<path d="M10.1964 6.3139C9.98932 5.44096 9.55545 3.59814 9.55545 3.59814H8.46982C8.46982 3.59814 9.30391 6.36439 9.67691 7.59806C9.69032 7.64268 9.69648 7.69111 9.69648 7.73784L9.69608 10.5667H10.6972L10.6968 7.73784C10.6968 7.69111 10.7029 7.64268 10.7163 7.59806C11.0893 6.36439 11.9234 3.59814 11.9234 3.59814H10.8378C10.8378 3.59814 10.4039 5.44096 10.1968 6.3139H10.1964Z" fill="white"/>
<path d="M13.2301 5.29028C12.4756 5.29028 11.864 5.90187 11.864 6.65632V9.32968C11.864 10.0841 12.4756 10.6957 13.2301 10.6957C13.9845 10.6957 14.5961 10.0841 14.5961 9.32968V6.65632C14.5962 5.90187 13.9845 5.29028 13.2301 5.29028ZM13.6243 9.38365C13.6243 9.60101 13.4474 9.77782 13.2301 9.77782C13.0128 9.77782 12.836 9.60101 12.836 9.38365V6.60229C12.836 6.38492 13.0128 6.20812 13.2301 6.20812C13.4474 6.20812 13.6243 6.38498 13.6243 6.60229V9.38365Z" fill="white"/>
</g>
<defs>
<clipPath id="clip0">
<rect x="0.75" width="26" height="26" fill="white"/>
</clipPath>
</defs>
</svg>
